<svg width="10" height="10" viewBox="0 0 10 10" fill="none" xmlns="http://www.w3.org/2000/svg">
<path d="M5.0026 0.835938C2.70677 0.835938 0.835938 2.70677 0.835938 5.0026C0.835938 7.29844 2.70677 9.16927 5.0026 9.16927C7.29844 9.16927 9.16927 7.29844 9.16927 5.0026C9.16927 2.70677 7.29844 0.835938 5.0026 0.835938ZM4.6901 3.33594C4.6901 3.1651 4.83177 3.02344 5.0026 3.02344C5.17344 3.02344 5.3151 3.1651 5.3151 3.33594V5.41927C5.3151 5.5901 5.17344 5.73177 5.0026 5.73177C4.83177 5.73177 4.6901 5.5901 4.6901 5.41927V3.33594ZM5.38594 6.8276C5.3651 6.88177 5.33594 6.92344 5.29844 6.9651C5.25677 7.0026 5.21094 7.03177 5.16094 7.0526C5.11094 7.07344 5.05677 7.08594 5.0026 7.08594C4.94844 7.08594 4.89427 7.07344 4.84427 7.0526C4.79427 7.03177 4.74844 7.0026 4.70677 6.9651C4.66927 6.92344 4.6401 6.88177 4.61927 6.8276C4.59844 6.7776 4.58594 6.72344 4.58594 6.66927C4.58594 6.6151 4.59844 6.56094 4.61927 6.51094C4.6401 6.46094 4.66927 6.4151 4.70677 6.37344C4.74844 6.33594 4.79427 6.30677 4.84427 6.28594C4.94427 6.24427 5.06094 6.24427 5.16094 6.28594C5.21094 6.30677 5.25677 6.33594 5.29844 6.37344C5.33594 6.4151 5.3651 6.46094 5.38594 6.51094C5.40677 6.56094 5.41927 6.6151 5.41927 6.66927C5.41927 6.72344 5.40677 6.7776 5.38594 6.8276Z" fill="url(#paint0_linear_1248_9579)"/>
<defs>
<linearGradient id="paint0_linear_1248_9579" x1="8.02995" y1="2.13802" x2="1.77912" y2="7.64453" gradientUnits="userSpaceOnUse">
<stop stop-color="#65AEFE"/>
<stop offset="1" stop-color="#A081ED" stop-opacity="0.78"/>
</linearGradient>
</defs>
</svg>
