<svg width="12" height="13" viewBox="0 0 12 13" fill="none" xmlns="http://www.w3.org/2000/svg">
<path d="M8.95232 5.86044H7.40732V2.26044C7.40732 1.42044 6.95232 1.25044 6.39732 1.88044L5.99732 2.33544L2.61232 6.18544C2.14732 6.71044 2.34232 7.14044 3.04232 7.14044H4.58732V10.7404C4.58732 11.5804 5.04232 11.7504 5.59732 11.1204L5.99732 10.6654L9.38232 6.81544C9.84732 6.29044 9.65232 5.86044 8.95232 5.86044Z" fill="#292D32"/>
<path d="M8.95232 5.86044H7.40732V2.26044C7.40732 1.42044 6.95232 1.25044 6.39732 1.88044L5.99732 2.33544L2.61232 6.18544C2.14732 6.71044 2.34232 7.14044 3.04232 7.14044H4.58732V10.7404C4.58732 11.5804 5.04232 11.7504 5.59732 11.1204L5.99732 10.6654L9.38232 6.81544C9.84732 6.29044 9.65232 5.86044 8.95232 5.86044Z" fill="url(#paint0_linear_1225_9622)"/>
<defs>
<linearGradient id="paint0_linear_1225_9622" x1="8.64051" y1="3.55141" x2="-0.382207" y2="8.71821" gradientUnits="userSpaceOnUse">
<stop stop-color="#65AEFE"/>
<stop offset="1" stop-color="#A081ED" stop-opacity="0.78"/>
</linearGradient>
</defs>
</svg>
