<svg width="12" height="13" viewBox="0 0 12 13" fill="none" xmlns="http://www.w3.org/2000/svg">
<path d="M8.69865 8.335L6.67865 6.5H5.32365L3.30365 8.335C2.73865 8.845 2.55365 9.63 2.82865 10.34C3.10365 11.045 3.77365 11.5 4.52865 11.5H7.47365C8.23365 11.5 8.89865 11.045 9.17365 10.34C9.44865 9.63 9.26365 8.845 8.69865 8.335ZM6.91365 9.57H5.09365C4.90365 9.57 4.75365 9.415 4.75365 9.23C4.75365 9.045 4.90865 8.89 5.09365 8.89H6.91365C7.10365 8.89 7.25365 9.045 7.25365 9.23C7.25365 9.415 7.09865 9.57 6.91365 9.57Z" fill="#292D32"/>
<path d="M8.69865 8.335L6.67865 6.5H5.32365L3.30365 8.335C2.73865 8.845 2.55365 9.63 2.82865 10.34C3.10365 11.045 3.77365 11.5 4.52865 11.5H7.47365C8.23365 11.5 8.89865 11.045 9.17365 10.34C9.44865 9.63 9.26365 8.845 8.69865 8.335ZM6.91365 9.57H5.09365C4.90365 9.57 4.75365 9.415 4.75365 9.23C4.75365 9.045 4.90865 8.89 5.09365 8.89H6.91365C7.10365 8.89 7.25365 9.045 7.25365 9.23C7.25365 9.415 7.09865 9.57 6.91365 9.57Z" fill="url(#paint0_linear_1225_9614)"/>
<path d="M9.17532 2.66C8.90032 1.955 8.23032 1.5 7.47532 1.5H4.52532C3.77032 1.5 3.10032 1.955 2.82532 2.66C2.55532 3.37 2.74032 4.155 3.30532 4.665L5.32532 6.5H6.68032L8.70032 4.665C9.26032 4.155 9.44532 3.37 9.17532 2.66ZM6.91032 4.115H5.09032C4.90032 4.115 4.75032 3.96 4.75032 3.775C4.75032 3.59 4.90532 3.435 5.09032 3.435H6.91032C7.10032 3.435 7.25032 3.59 7.25032 3.775C7.25032 3.96 7.09532 4.115 6.91032 4.115Z" fill="#292D32"/>
<path d="M9.17532 2.66C8.90032 1.955 8.23032 1.5 7.47532 1.5H4.52532C3.77032 1.5 3.10032 1.955 2.82532 2.66C2.55532 3.37 2.74032 4.155 3.30532 4.665L5.32532 6.5H6.68032L8.70032 4.665C9.26032 4.155 9.44532 3.37 9.17532 2.66ZM6.91032 4.115H5.09032C4.90032 4.115 4.75032 3.96 4.75032 3.775C4.75032 3.59 4.90532 3.435 5.09032 3.435H6.91032C7.10032 3.435 7.25032 3.59 7.25032 3.775C7.25032 3.96 7.09532 4.115 6.91032 4.115Z" fill="url(#paint1_linear_1225_9614)"/>
<defs>
<linearGradient id="paint0_linear_1225_9614" x1="8.39737" y1="7.52562" x2="3.17076" y2="12.9527" gradientUnits="userSpaceOnUse">
<stop stop-color="#65AEFE"/>
<stop offset="1" stop-color="#A081ED" stop-opacity="0.78"/>
</linearGradient>
<linearGradient id="paint1_linear_1225_9614" x1="8.39607" y1="2.52562" x2="3.16941" y2="7.95154" gradientUnits="userSpaceOnUse">
<stop stop-color="#65AEFE"/>
<stop offset="1" stop-color="#A081ED" stop-opacity="0.78"/>
</linearGradient>
</defs>
</svg>
